<?xml version="1.0" encoding="UTF-8"?>
<svg version="1.1" xmlns="http://www.w3.org/2000/svg" width="512" height="512">
<path d="M0 0 C1.01790619 0.00215515 2.03581238 0.0043103 3.08456421 0.00653076 C17.69363523 0.05620146 32.02575853 0.30709809 46.375 3.3125 C47.34985352 3.51117676 48.32470703 3.70985352 49.32910156 3.91455078 C97.7109774 14.03517194 141.69928269 35.9516877 177.375 70.3125 C178.3640332 71.26068604 178.3640332 71.26068604 179.37304688 72.22802734 C188.86130305 81.37247479 197.6012044 90.66984009 205.375 101.3125 C206.23306152 102.46355017 207.09113451 103.61459177 207.94921875 104.765625 C213.98736829 112.95680614 219.34595521 121.47054105 224.375 130.3125 C224.73948242 130.94430176 225.10396484 131.57610352 225.47949219 132.22705078 C247.08534998 169.97532572 256.85198095 212.74189997 256.6875 255.9375 C256.68534485 256.95540619 256.6831897 257.97331238 256.68096924 259.02206421 C256.63129854 273.63113523 256.38040191 287.96325853 253.375 302.3125 C253.07698486 303.77478027 253.07698486 303.77478027 252.77294922 305.26660156 C242.65232806 353.6484774 220.7358123 397.63678269 186.375 433.3125 C185.74287598 433.97185547 185.11075195 434.63121094 184.45947266 435.31054688 C175.31502521 444.79880305 166.01765991 453.5387044 155.375 461.3125 C154.22394983 462.17056152 153.07290823 463.02863451 151.921875 463.88671875 C143.73224019 469.92427396 135.22961724 475.30707302 126.375 480.3125 C125.66778809 480.7146875 124.96057617 481.116875 124.23193359 481.53125 C101.09654164 494.5566741 75.92537591 503.30551461 49.9375 508.625 C49.21860596 508.77235596 48.49971191 508.91971191 47.7590332 509.0715332 C33.08339502 511.86090125 18.55831162 512.66142619 3.64770508 512.62817383 C0.70811513 512.6250221 -2.2304558 512.64854926 -5.16992188 512.67382812 C-18.54306192 512.71848737 -31.43916711 511.51301542 -44.625 509.3125 C-46.33055054 509.03031616 -46.33055054 509.03031616 -48.07055664 508.74243164 C-91.33802759 500.97044532 -132.38793216 480.98345309 -165.625 452.3125 C-166.37007813 451.67828125 -167.11515625 451.0440625 -167.8828125 450.390625 C-181.38779833 438.57948485 -194.05918743 425.82889772 -204.625 411.3125 C-205.48149066 410.16255169 -206.33826433 409.01281411 -207.1953125 407.86328125 C-213.23534209 399.67315742 -218.61867614 391.16870382 -223.625 382.3125 C-224.0271875 381.60528809 -224.429375 380.89807617 -224.84375 380.16943359 C-237.8691741 357.03404164 -246.61801461 331.86287591 -251.9375 305.875 C-252.08485596 305.15610596 -252.23221191 304.43721191 -252.3840332 303.6965332 C-255.35789088 288.05024391 -255.99800362 272.57681954 -255.9375 256.6875 C-255.93534485 255.66959381 -255.9331897 254.65168762 -255.93096924 253.60293579 C-255.88129854 238.99386477 -255.63040191 224.66174147 -252.625 210.3125 C-252.42632324 209.33764648 -252.22764648 208.36279297 -252.02294922 207.35839844 C-241.90232806 158.9765226 -219.9858123 114.98821731 -185.625 79.3125 C-184.99287598 78.65314453 -184.36075195 77.99378906 -183.70947266 77.31445312 C-174.56502521 67.82619695 -165.26765991 59.0862956 -154.625 51.3125 C-153.47394983 50.45443848 -152.32290823 49.59636549 -151.171875 48.73828125 C-142.98224019 42.70072604 -134.47961724 37.31792698 -125.625 32.3125 C-124.91778809 31.9103125 -124.21057617 31.508125 -123.48193359 31.09375 C-100.34654164 18.0683259 -75.17537591 9.31948539 -49.1875 4 C-48.46860596 3.85264404 -47.74971191 3.70528809 -47.0090332 3.5534668 C-31.36274391 0.57960912 -15.88931954 -0.06050362 0 0 Z " fill="#0E230C" transform="translate(255.625,-0.3125)"/>
<path d="M0 0 C6.65804465 4.79801948 10.53420426 10.69219078 12.02706909 18.8775177 C12.53950602 23.47894325 12.60075507 27.98277091 12.59033203 32.6081543 C12.59205603 33.57803 12.59378002 34.54790571 12.59555626 35.54717159 C12.59989703 38.77235026 12.59694773 41.99747689 12.59375 45.22265625 C12.59485107 47.51858538 12.59628254 49.81451438 12.59802246 52.11044312 C12.60093519 58.28167331 12.59661214 64.45287698 12.58991241 70.62410355 C12.58594209 74.45650482 12.58342678 78.28890471 12.58123779 82.12130737 C12.55955263 115.13836405 12.46196208 148.15465514 12.11306 181.17001724 C12.08612631 183.81737903 12.06244562 186.46475205 12.03961182 189.1121521 C12.00321114 193.24964633 11.95701864 197.38691873 11.90299988 201.52421951 C11.88485664 203.0044384 11.8695317 204.4846956 11.8575592 205.96497726 C11.62912605 232.89933684 6.97671083 258.74249437 -12.3984375 278.6875 C-28.26262076 293.56836612 -48.8444943 298.15567328 -69.9140625 298.0234375 C-71.13867188 298.03117187 -72.36328125 298.03890625 -73.625 298.046875 C-95.71923145 298.00006519 -120.13537729 293.09648029 -136.484375 277.1328125 C-143.81234214 268.71818864 -147.13725893 259.99575912 -146.9140625 248.8359375 C-145.88836309 240.45939232 -140.96515418 233.97207346 -134.5390625 228.7734375 C-129.30909224 225.08868573 -123.73118166 224.97090109 -117.5390625 225.7734375 C-109.83164371 227.8396455 -102.60855821 231.27733645 -95.35546875 234.54492188 C-85.69774957 238.79233288 -74.70244938 242.14432214 -64.171875 239.0859375 C-58.54813325 236.53933746 -55.05729948 232.80991145 -52.2890625 227.2734375 C-50.62763538 221.7353471 -50.39285606 216.30270741 -50.40103149 210.55766296 C-50.39679957 209.3405579 -50.39679957 209.3405579 -50.39248216 208.09886485 C-50.38416986 205.38840989 -50.38280081 202.67799595 -50.38134766 199.9675293 C-50.37667699 198.02067958 -50.37153301 196.07383096 -50.36595154 194.12698364 C-50.35468708 189.9380421 -50.34624497 185.7491076 -50.33983231 181.56015587 C-50.32913567 174.93280273 -50.30888671 168.30550032 -50.28671265 161.67817688 C-50.22484318 142.83373335 -50.1707777 123.9892931 -50.13769531 105.14477539 C-50.11933941 94.73439091 -50.09039317 84.32409176 -50.0496906 73.91377002 C-50.02864097 68.40769335 -50.01316617 62.90172411 -50.01088333 57.39560509 C-50.00873301 52.21548391 -49.99282433 47.03558657 -49.96649361 41.8555336 C-49.95931444 39.95811638 -49.95719292 38.060672 -49.96059608 36.16324425 C-49.96451029 33.56528784 -49.94997389 30.96803954 -49.93106079 28.37016296 C-49.93659049 27.62617254 -49.94212018 26.88218212 -49.94781744 26.11564654 C-49.83669168 17.22272455 -46.91217199 9.08029845 -40.5390625 2.7734375 C-28.49610262 -5.97816052 -13.11795402 -7.65513481 0 0 Z " fill="#61CC5C" transform="translate(323.5390625,109.2265625)"/>
</svg>
